# xmcd
#
# Track frame offsets:
#	150
#	35338
#	70526
#	105714
#	138364
#	158662
#	194942
#	225393
#	269089
#	287087
#
# Disc length: 4329 seconds
#
# Revision: 0
# Processed by: cddbd v1.5.2PL0 Copyright (c) Steve Scherf et al.
# Submitted via: dBpowerAMP V4.0
#
DISCID=8f10e70a
DTITLE=francis - renzy songs
DYEAR=1900
DGENRE=
TTITLE0=rip
TTITLE1=kem
TTITLE2=bot
TTITLE3=mo
TTITLE4=cge
TTITLE5=ikembot
TTITLE6=joke
TTITLE7=lalo
TTITLE8=tiback
TTITLE9=tikling
EXTD=renz boy songs\nkembot\n
EXTT0=
EXTT1=
EXTT2=
EXTT3=
EXTT4=
EXTT5=
EXTT6=
EXTT7=
EXTT8=
EXTT9=
PLAYORDER=
